<mxfile host="Electron" modified="2024-01-02T05:08:29.273Z" agent="Mozilla/5.0 (Windows NT 10.0; Win64; x64) AppleWebKit/537.36 (KHTML, like Gecko) draw.io/22.1.16 Chrome/120.0.6099.109 Electron/28.1.0 Safari/537.36" etag="u9ZC6m0shQSsx6Y9rrJz" version="22.1.16" type="device">
  <diagram name="第 1 页" id="xMHDcfa8XDgs86MFGYRl">
    <mxGraphModel dx="1040" dy="1248" grid="1" gridSize="10" guides="1" tooltips="1" connect="1" arrows="1" fold="1" page="1" pageScale="1" pageWidth="827" pageHeight="1169" math="0" shadow="0">
      <root>
        <mxCell id="0" />
        <mxCell id="1" parent="0" />
        <mxCell id="Pf6sZYggtsoqdScW0b6V-1" value="" style="rounded=1;whiteSpace=wrap;html=1;fillColor=#fff2cc;strokeColor=#d6b656;container=1;" vertex="1" parent="1">
          <mxGeometry x="40" y="140" width="380" height="540" as="geometry">
            <mxRectangle x="40" y="140" width="70" height="40" as="alternateBounds" />
          </mxGeometry>
        </mxCell>
        <mxCell id="Pf6sZYggtsoqdScW0b6V-54" value="" style="group" vertex="1" connectable="0" parent="Pf6sZYggtsoqdScW0b6V-1">
          <mxGeometry x="80" y="30" width="280" height="430" as="geometry" />
        </mxCell>
        <mxCell id="Pf6sZYggtsoqdScW0b6V-3" value="用户进程" style="rounded=1;whiteSpace=wrap;html=1;fillColor=#dae8fc;strokeColor=#6c8ebf;" vertex="1" parent="Pf6sZYggtsoqdScW0b6V-54">
          <mxGeometry x="40" width="150" height="30" as="geometry" />
        </mxCell>
        <mxCell id="Pf6sZYggtsoqdScW0b6V-4" value="流头" style="rounded=1;whiteSpace=wrap;html=1;fillColor=#dae8fc;strokeColor=#6c8ebf;" vertex="1" parent="Pf6sZYggtsoqdScW0b6V-54">
          <mxGeometry y="60" width="225" height="20" as="geometry" />
        </mxCell>
        <mxCell id="Pf6sZYggtsoqdScW0b6V-6" value="用户空间层级&lt;br&gt;缓冲区" style="rounded=1;whiteSpace=wrap;html=1;fillColor=#dae8fc;strokeColor=#6c8ebf;dashed=1;dashPattern=12 12;opacity=50;" vertex="1" parent="Pf6sZYggtsoqdScW0b6V-54">
          <mxGeometry y="80" width="225" height="40" as="geometry" />
        </mxCell>
        <mxCell id="Pf6sZYggtsoqdScW0b6V-7" value="读队列" style="rounded=1;whiteSpace=wrap;html=1;fillColor=#d5e8d4;strokeColor=#82b366;" vertex="1" parent="Pf6sZYggtsoqdScW0b6V-54">
          <mxGeometry y="120" width="117.5" height="30" as="geometry" />
        </mxCell>
        <mxCell id="Pf6sZYggtsoqdScW0b6V-13" value="写队列" style="rounded=1;whiteSpace=wrap;html=1;fillColor=#e1d5e7;strokeColor=#9673a6;" vertex="1" parent="Pf6sZYggtsoqdScW0b6V-54">
          <mxGeometry x="117.5" y="120" width="110" height="30" as="geometry" />
        </mxCell>
        <mxCell id="Pf6sZYggtsoqdScW0b6V-43" style="edgeStyle=orthogonalEdgeStyle;rounded=0;orthogonalLoop=1;jettySize=auto;html=1;exitX=0.75;exitY=1;exitDx=0;exitDy=0;entryX=0.75;entryY=0;entryDx=0;entryDy=0;" edge="1" parent="Pf6sZYggtsoqdScW0b6V-54" source="Pf6sZYggtsoqdScW0b6V-3" target="Pf6sZYggtsoqdScW0b6V-4">
          <mxGeometry relative="1" as="geometry" />
        </mxCell>
        <mxCell id="Pf6sZYggtsoqdScW0b6V-17" value="写队列" style="rounded=1;whiteSpace=wrap;html=1;fillColor=#e1d5e7;strokeColor=#9673a6;" vertex="1" parent="Pf6sZYggtsoqdScW0b6V-54">
          <mxGeometry x="117.5" y="180" width="110" height="30" as="geometry" />
        </mxCell>
        <mxCell id="Pf6sZYggtsoqdScW0b6V-49" style="edgeStyle=orthogonalEdgeStyle;rounded=0;orthogonalLoop=1;jettySize=auto;html=1;exitX=0.5;exitY=1;exitDx=0;exitDy=0;entryX=0.5;entryY=0;entryDx=0;entryDy=0;" edge="1" parent="Pf6sZYggtsoqdScW0b6V-54" source="Pf6sZYggtsoqdScW0b6V-13" target="Pf6sZYggtsoqdScW0b6V-17">
          <mxGeometry relative="1" as="geometry" />
        </mxCell>
        <mxCell id="Pf6sZYggtsoqdScW0b6V-48" style="edgeStyle=orthogonalEdgeStyle;rounded=0;orthogonalLoop=1;jettySize=auto;html=1;exitX=0.5;exitY=0;exitDx=0;exitDy=0;entryX=0.5;entryY=1;entryDx=0;entryDy=0;" edge="1" parent="Pf6sZYggtsoqdScW0b6V-54" source="Pf6sZYggtsoqdScW0b6V-18" target="Pf6sZYggtsoqdScW0b6V-7">
          <mxGeometry relative="1" as="geometry" />
        </mxCell>
        <mxCell id="Pf6sZYggtsoqdScW0b6V-18" value="读队列" style="rounded=1;whiteSpace=wrap;html=1;fillColor=#d5e8d4;strokeColor=#82b366;" vertex="1" parent="Pf6sZYggtsoqdScW0b6V-54">
          <mxGeometry y="180" width="117.5" height="30" as="geometry" />
        </mxCell>
        <mxCell id="Pf6sZYggtsoqdScW0b6V-27" value="写队列" style="rounded=1;whiteSpace=wrap;html=1;fillColor=#e1d5e7;strokeColor=#9673a6;" vertex="1" parent="Pf6sZYggtsoqdScW0b6V-54">
          <mxGeometry x="117.5" y="240" width="110" height="30" as="geometry" />
        </mxCell>
        <mxCell id="Pf6sZYggtsoqdScW0b6V-50" style="edgeStyle=orthogonalEdgeStyle;rounded=0;orthogonalLoop=1;jettySize=auto;html=1;exitX=0.5;exitY=1;exitDx=0;exitDy=0;entryX=0.5;entryY=0;entryDx=0;entryDy=0;" edge="1" parent="Pf6sZYggtsoqdScW0b6V-54" source="Pf6sZYggtsoqdScW0b6V-17" target="Pf6sZYggtsoqdScW0b6V-27">
          <mxGeometry relative="1" as="geometry" />
        </mxCell>
        <mxCell id="Pf6sZYggtsoqdScW0b6V-47" style="edgeStyle=orthogonalEdgeStyle;rounded=0;orthogonalLoop=1;jettySize=auto;html=1;exitX=0.5;exitY=0;exitDx=0;exitDy=0;" edge="1" parent="Pf6sZYggtsoqdScW0b6V-54" source="Pf6sZYggtsoqdScW0b6V-28" target="Pf6sZYggtsoqdScW0b6V-18">
          <mxGeometry relative="1" as="geometry" />
        </mxCell>
        <mxCell id="Pf6sZYggtsoqdScW0b6V-28" value="读队列" style="rounded=1;whiteSpace=wrap;html=1;fillColor=#d5e8d4;strokeColor=#82b366;" vertex="1" parent="Pf6sZYggtsoqdScW0b6V-54">
          <mxGeometry y="240" width="117.5" height="30" as="geometry" />
        </mxCell>
        <mxCell id="Pf6sZYggtsoqdScW0b6V-29" value="写队列" style="rounded=1;whiteSpace=wrap;html=1;fillColor=#e1d5e7;strokeColor=#9673a6;" vertex="1" parent="Pf6sZYggtsoqdScW0b6V-54">
          <mxGeometry x="117.5" y="300" width="110" height="30" as="geometry" />
        </mxCell>
        <mxCell id="Pf6sZYggtsoqdScW0b6V-46" style="edgeStyle=orthogonalEdgeStyle;rounded=0;orthogonalLoop=1;jettySize=auto;html=1;exitX=0.5;exitY=0;exitDx=0;exitDy=0;entryX=0.5;entryY=1;entryDx=0;entryDy=0;" edge="1" parent="Pf6sZYggtsoqdScW0b6V-54" source="Pf6sZYggtsoqdScW0b6V-30" target="Pf6sZYggtsoqdScW0b6V-28">
          <mxGeometry relative="1" as="geometry" />
        </mxCell>
        <mxCell id="Pf6sZYggtsoqdScW0b6V-30" value="读队列" style="rounded=1;whiteSpace=wrap;html=1;fillColor=#d5e8d4;strokeColor=#82b366;" vertex="1" parent="Pf6sZYggtsoqdScW0b6V-54">
          <mxGeometry y="300" width="117.5" height="30" as="geometry" />
        </mxCell>
        <mxCell id="Pf6sZYggtsoqdScW0b6V-31" value="驱动程序端" style="rounded=1;whiteSpace=wrap;html=1;fillColor=#dae8fc;strokeColor=#6c8ebf;" vertex="1" parent="Pf6sZYggtsoqdScW0b6V-54">
          <mxGeometry y="330" width="225" height="30" as="geometry" />
        </mxCell>
        <mxCell id="Pf6sZYggtsoqdScW0b6V-53" style="edgeStyle=orthogonalEdgeStyle;rounded=0;orthogonalLoop=1;jettySize=auto;html=1;exitX=0.25;exitY=0;exitDx=0;exitDy=0;entryX=0.25;entryY=1;entryDx=0;entryDy=0;" edge="1" parent="Pf6sZYggtsoqdScW0b6V-54" source="Pf6sZYggtsoqdScW0b6V-34" target="Pf6sZYggtsoqdScW0b6V-31">
          <mxGeometry relative="1" as="geometry">
            <Array as="points">
              <mxPoint x="56" y="400" />
            </Array>
          </mxGeometry>
        </mxCell>
        <mxCell id="Pf6sZYggtsoqdScW0b6V-34" value="设备" style="rounded=1;whiteSpace=wrap;html=1;fillColor=#dae8fc;strokeColor=#6c8ebf;" vertex="1" parent="Pf6sZYggtsoqdScW0b6V-54">
          <mxGeometry x="40" y="400" width="160" height="30" as="geometry" />
        </mxCell>
        <mxCell id="Pf6sZYggtsoqdScW0b6V-37" style="edgeStyle=orthogonalEdgeStyle;rounded=0;orthogonalLoop=1;jettySize=auto;html=1;exitX=0.5;exitY=0;exitDx=0;exitDy=0;entryX=1;entryY=0.5;entryDx=0;entryDy=0;shape=link;" edge="1" parent="Pf6sZYggtsoqdScW0b6V-54" source="Pf6sZYggtsoqdScW0b6V-35" target="Pf6sZYggtsoqdScW0b6V-13">
          <mxGeometry relative="1" as="geometry" />
        </mxCell>
        <mxCell id="Pf6sZYggtsoqdScW0b6V-38" style="edgeStyle=orthogonalEdgeStyle;rounded=0;orthogonalLoop=1;jettySize=auto;html=1;exitX=0.5;exitY=1;exitDx=0;exitDy=0;entryX=1;entryY=0.5;entryDx=0;entryDy=0;shape=link;" edge="1" parent="Pf6sZYggtsoqdScW0b6V-54" source="Pf6sZYggtsoqdScW0b6V-35" target="Pf6sZYggtsoqdScW0b6V-29">
          <mxGeometry relative="1" as="geometry" />
        </mxCell>
        <mxCell id="Pf6sZYggtsoqdScW0b6V-35" value="流&lt;br&gt;模&lt;br&gt;块" style="rounded=1;whiteSpace=wrap;html=1;fillColor=#d80073;fontColor=#ffffff;strokeColor=#A50040;" vertex="1" parent="Pf6sZYggtsoqdScW0b6V-54">
          <mxGeometry x="250" y="190" width="30" height="60" as="geometry" />
        </mxCell>
        <mxCell id="Pf6sZYggtsoqdScW0b6V-51" style="edgeStyle=orthogonalEdgeStyle;rounded=0;orthogonalLoop=1;jettySize=auto;html=1;exitX=0.5;exitY=1;exitDx=0;exitDy=0;entryX=0.5;entryY=0;entryDx=0;entryDy=0;" edge="1" parent="Pf6sZYggtsoqdScW0b6V-54" source="Pf6sZYggtsoqdScW0b6V-27" target="Pf6sZYggtsoqdScW0b6V-29">
          <mxGeometry relative="1" as="geometry" />
        </mxCell>
        <mxCell id="Pf6sZYggtsoqdScW0b6V-42" style="edgeStyle=orthogonalEdgeStyle;rounded=0;orthogonalLoop=1;jettySize=auto;html=1;exitX=0.25;exitY=0;exitDx=0;exitDy=0;entryX=0.106;entryY=0.998;entryDx=0;entryDy=0;entryPerimeter=0;" edge="1" parent="Pf6sZYggtsoqdScW0b6V-54" source="Pf6sZYggtsoqdScW0b6V-4" target="Pf6sZYggtsoqdScW0b6V-3">
          <mxGeometry relative="1" as="geometry" />
        </mxCell>
        <mxCell id="Pf6sZYggtsoqdScW0b6V-52" style="edgeStyle=orthogonalEdgeStyle;rounded=0;orthogonalLoop=1;jettySize=auto;html=1;exitX=0.75;exitY=1;exitDx=0;exitDy=0;entryX=0.804;entryY=-0.02;entryDx=0;entryDy=0;entryPerimeter=0;" edge="1" parent="Pf6sZYggtsoqdScW0b6V-54" source="Pf6sZYggtsoqdScW0b6V-31" target="Pf6sZYggtsoqdScW0b6V-34">
          <mxGeometry relative="1" as="geometry" />
        </mxCell>
        <mxCell id="Pf6sZYggtsoqdScW0b6V-56" value="&lt;b style=&quot;font-size: 18px;&quot;&gt;流结构&lt;/b&gt;" style="text;html=1;strokeColor=none;fillColor=none;align=center;verticalAlign=middle;whiteSpace=wrap;rounded=0;fontSize=18;" vertex="1" parent="Pf6sZYggtsoqdScW0b6V-1">
          <mxGeometry x="131" y="480" width="126" height="40" as="geometry" />
        </mxCell>
        <mxCell id="Pf6sZYggtsoqdScW0b6V-2" value="&lt;b style=&quot;font-size: 21px;&quot;&gt;I/O系统&lt;/b&gt;" style="text;html=1;strokeColor=none;fillColor=none;align=center;verticalAlign=middle;whiteSpace=wrap;rounded=0;fontSize=21;" vertex="1" parent="1">
          <mxGeometry x="329" y="50" width="170" height="50" as="geometry" />
        </mxCell>
      </root>
    </mxGraphModel>
  </diagram>
</mxfile>
